<svg width="140" height="41" viewBox="0 0 140 41" fill="none" xmlns="http://www.w3.org/2000/svg">
<path d="M25.0056 35.5217C24.2357 35.5217 23.7103 35.1594 23.4295 34.4348L18.3344 21.2147C18.1533 20.7346 18.1623 20.3496 18.3616 20.0598C18.5609 19.7609 18.9142 19.6114 19.4214 19.6114H19.8969C20.6759 19.6114 21.2013 19.9783 21.473 20.7119L25.5084 31.8804L29.2448 20.7527C29.5074 19.9918 30.0328 19.6114 30.8209 19.6114H30.8752C31.6904 19.6114 32.2203 19.9918 32.4649 20.7527L36.2013 31.8804L40.2366 20.7255C40.5084 19.9828 41.0337 19.6114 41.8127 19.6114H42.2882C42.8045 19.6114 43.1623 19.7609 43.3616 20.0598C43.5699 20.3496 43.5835 20.7346 43.4024 21.2147L38.2529 34.4348C37.9721 35.1594 37.4422 35.5217 36.6632 35.5217H35.8888C35.0736 35.5217 34.5437 35.1413 34.2991 34.3804L30.848 23.8913L27.3969 34.3804C27.1524 35.1413 26.627 35.5217 25.8209 35.5217H25.0056ZM47.3969 35.5217C46.944 35.5217 46.5953 35.404 46.3507 35.1685C46.1152 34.9239 45.9975 34.5797 45.9975 34.1359V15.8206C45.9975 15.3768 46.1152 15.0371 46.3507 14.8016C46.5953 14.5571 46.944 14.4348 47.3969 14.4348H47.723C48.1759 14.4348 48.5201 14.5571 48.7556 14.8016C49.0002 15.0371 49.1225 15.3768 49.1225 15.8206V22.5054C49.4757 21.6177 50.1007 20.8659 50.9975 20.25C51.8942 19.634 53.0038 19.3261 54.3263 19.3261C56.464 19.3261 58.0672 19.9375 59.1361 21.1603C60.214 22.3831 60.7529 24.2944 60.7529 26.894V34.1359C60.7529 34.5797 60.6306 34.9239 60.3861 35.1685C60.1506 35.404 59.8064 35.5217 59.3535 35.5217H59.0274C58.5745 35.5217 58.2257 35.404 57.9812 35.1685C57.7457 34.9239 57.6279 34.5797 57.6279 34.1359V27.1522C57.6279 25.3768 57.2837 24.0815 56.5953 23.2663C55.9069 22.442 54.8245 22.0299 53.348 22.0299C51.9078 22.0299 50.8435 22.4873 50.1551 23.4022C49.4667 24.317 49.1225 25.6848 49.1225 27.5054V34.1359C49.1225 34.5797 49.0002 34.9239 48.7556 35.1685C48.5201 35.404 48.1759 35.5217 47.723 35.5217H47.3969ZM65.6714 17.4647C65.1279 17.4647 64.6841 17.3152 64.3399 17.0163C63.9957 16.7174 63.8236 16.3098 63.8236 15.7935C63.8236 15.2772 63.9957 14.8696 64.3399 14.5706C64.6841 14.2717 65.1279 14.1223 65.6714 14.1223C66.1786 14.1223 66.6089 14.2763 66.9622 14.5842C67.3245 14.8831 67.5056 15.2862 67.5056 15.7935C67.5056 16.3007 67.3245 16.7083 66.9622 17.0163C66.6089 17.3152 66.1786 17.4647 65.6714 17.4647ZM65.454 35.5217C65.0192 35.5217 64.6841 35.404 64.4486 35.1685C64.2131 34.9239 64.0953 34.5797 64.0953 34.1359V20.9973C64.0953 20.5534 64.2131 20.2138 64.4486 19.9783C64.6841 19.7337 65.0192 19.6114 65.454 19.6114H65.8073C66.242 19.6114 66.5772 19.7337 66.8127 19.9783C67.0573 20.2138 67.1795 20.5534 67.1795 20.9973V34.1359C67.1795 34.5797 67.0573 34.9239 66.8127 35.1685C66.5772 35.404 66.242 35.5217 65.8073 35.5217H65.454ZM77.791 35.7391C75.7076 35.7391 74.1949 35.2455 73.2529 34.2581C72.3109 33.2618 71.8399 31.5679 71.8399 29.1766V22.0299H70.916C70.4721 22.0299 70.1279 21.9257 69.8833 21.7174C69.6478 21.5 69.5301 21.1965 69.5301 20.8071C69.5301 20.4176 69.6297 20.1232 69.829 19.9239C70.0373 19.7156 70.3272 19.6114 70.6986 19.6114H71.8399V17.9402C71.8399 17.0978 72.2475 16.5951 73.0627 16.4321L73.4567 16.3505C73.9458 16.2418 74.3218 16.2962 74.5844 16.5136C74.8471 16.731 74.9785 17.0842 74.9785 17.5734V19.6114H78.2937C79.2176 19.6114 79.6795 20.01 79.6795 20.8071C79.6795 21.1965 79.5573 21.5 79.3127 21.7174C79.0772 21.9257 78.7375 22.0299 78.2937 22.0299H74.9785V28.8098C74.9785 30.4493 75.223 31.5996 75.7122 32.2609C76.2013 32.913 77.0527 33.2391 78.2665 33.2391C79.1814 33.2391 79.6795 33.5924 79.7611 34.2989C79.8607 35.1594 79.4712 35.6304 78.5926 35.7119C78.4114 35.7301 78.1442 35.7391 77.791 35.7391ZM89.2176 35.8342C86.7448 35.8342 84.7611 35.0824 83.2665 33.5788C81.781 32.0661 81.0382 30.0598 81.0382 27.5598C81.0382 25.1141 81.781 23.1259 83.2665 21.5951C84.7611 20.0643 86.6995 19.2989 89.0817 19.2989C91.3734 19.2989 93.2122 20.0009 94.598 21.4049C95.9929 22.7998 96.7402 24.6567 96.8399 26.9755C96.8489 27.4284 96.7312 27.7772 96.4866 28.0217C96.2511 28.2572 95.9069 28.375 95.454 28.375H84.1632C84.2176 29.9058 84.6931 31.0969 85.5899 31.9484C86.4957 32.7908 87.723 33.2119 89.2719 33.2119C90.1143 33.2119 90.8299 33.1078 91.4187 32.8994C92.0165 32.6821 92.5736 32.3424 93.0899 31.8804C93.1261 31.8533 93.1986 31.7898 93.3073 31.6902C93.416 31.5906 93.4884 31.5272 93.5247 31.5C93.5609 31.4728 93.6243 31.423 93.7149 31.3505C93.8054 31.2781 93.8734 31.2328 93.9187 31.2147C93.964 31.1875 94.0319 31.1558 94.1225 31.1196C94.2131 31.0833 94.2901 31.0652 94.3535 31.0652C94.4259 31.0561 94.5074 31.0516 94.598 31.0516C94.6886 31.0516 94.7792 31.0652 94.8698 31.0924L95.2094 31.1875C96.1786 31.4321 96.3915 31.9484 95.848 32.7364C94.4622 34.8016 92.252 35.8342 89.2176 35.8342ZM84.2448 25.9158H93.8915C93.7828 24.6386 93.3118 23.6286 92.4785 22.8859C91.6451 22.1431 90.531 21.7717 89.1361 21.7717C87.7683 21.7717 86.6542 22.125 85.7937 22.8315C84.9422 23.529 84.4259 24.5571 84.2448 25.9158ZM101.364 35.5217C100.911 35.5217 100.563 35.404 100.318 35.1685C100.083 34.9239 99.9649 34.5797 99.9649 34.1359V15.8206C99.9649 15.3768 100.083 15.0371 100.318 14.8016C100.563 14.5571 100.911 14.4348 101.364 14.4348H101.718C102.17 14.4348 102.515 14.5571 102.75 14.8016C102.995 15.0371 103.117 15.3768 103.117 15.8206V34.1359C103.117 34.5797 102.995 34.9239 102.75 35.1685C102.515 35.404 102.17 35.5217 101.718 35.5217H101.364ZM108.362 17.4647C107.818 17.4647 107.374 17.3152 107.03 17.0163C106.686 16.7174 106.514 16.3098 106.514 15.7935C106.514 15.2772 106.686 14.8696 107.03 14.5706C107.374 14.2717 107.818 14.1223 108.362 14.1223C108.869 14.1223 109.299 14.2763 109.652 14.5842C110.015 14.8831 110.196 15.2862 110.196 15.7935C110.196 16.3007 110.015 16.7083 109.652 17.0163C109.299 17.3152 108.869 17.4647 108.362 17.4647ZM108.144 35.5217C107.709 35.5217 107.374 35.404 107.139 35.1685C106.903 34.9239 106.786 34.5797 106.786 34.1359V20.9973C106.786 20.5534 106.903 20.2138 107.139 19.9783C107.374 19.7337 107.709 19.6114 108.144 19.6114H108.497C108.932 19.6114 109.267 19.7337 109.503 19.9783C109.747 20.2138 109.87 20.5534 109.87 20.9973V34.1359C109.87 34.5797 109.747 34.9239 109.503 35.1685C109.267 35.404 108.932 35.5217 108.497 35.5217H108.144ZM120.101 35.7935C118.742 35.7935 117.424 35.5444 116.147 35.0462C114.879 34.5389 113.919 33.8732 113.266 33.0489C112.986 32.6866 112.904 32.3379 113.022 32.0027C113.149 31.6676 113.443 31.4321 113.905 31.2962L114.19 31.2147C114.471 31.106 114.752 31.0879 115.033 31.1603C115.314 31.2328 115.644 31.4366 116.025 31.7717C117.039 32.6775 118.393 33.1304 120.087 33.1304C121.247 33.1304 122.152 32.9357 122.805 32.5462C123.457 32.1476 123.783 31.5996 123.783 30.9022C123.783 30.5127 123.665 30.1821 123.43 29.9103C123.194 29.6295 122.877 29.4121 122.478 29.2581C122.08 29.0951 121.622 28.9592 121.106 28.8505C120.59 28.7328 120.046 28.6241 119.476 28.5244C118.905 28.4248 118.334 28.3161 117.764 28.1984C117.202 28.0715 116.663 27.8994 116.147 27.6821C115.631 27.4647 115.173 27.2065 114.775 26.9076C114.376 26.5996 114.059 26.1965 113.824 25.6984C113.588 25.1911 113.47 24.6069 113.47 23.9456C113.47 23.0036 113.765 22.1748 114.353 21.4592C114.951 20.7437 115.73 20.2092 116.69 19.856C117.651 19.5027 118.706 19.3261 119.856 19.3261C120.934 19.3261 122.039 19.5344 123.171 19.9511C124.304 20.3587 125.205 20.9112 125.875 21.6087C126.201 21.9529 126.319 22.2926 126.228 22.6277C126.138 22.9629 125.866 23.1984 125.413 23.3342L125.128 23.4158C124.947 23.4701 124.784 23.5018 124.639 23.5109C124.503 23.5199 124.344 23.4882 124.163 23.4158C123.991 23.3433 123.864 23.2844 123.783 23.2391C123.701 23.1938 123.529 23.0897 123.266 22.9266C122.116 22.2382 120.993 21.894 119.897 21.894C118.864 21.894 118.045 22.0616 117.438 22.3967C116.831 22.7228 116.527 23.1893 116.527 23.7962C116.527 24.1766 116.645 24.4982 116.881 24.7609C117.116 25.0235 117.433 25.2319 117.832 25.3859C118.239 25.5308 118.701 25.6576 119.218 25.7663C119.743 25.875 120.291 25.9792 120.862 26.0788C121.441 26.1784 122.016 26.2917 122.587 26.4185C123.167 26.5362 123.715 26.7083 124.231 26.9348C124.757 27.1612 125.218 27.433 125.617 27.75C126.025 28.067 126.346 28.4882 126.582 29.0136C126.817 29.5299 126.935 30.1322 126.935 30.8206C126.935 32.2971 126.296 33.4973 125.019 34.4212C123.742 35.336 122.103 35.7935 120.101 35.7935ZM136.487 35.7391C134.403 35.7391 132.891 35.2455 131.949 34.2581C131.007 33.2618 130.536 31.5679 130.536 29.1766V22.0299H129.612C129.168 22.0299 128.824 21.9257 128.579 21.7174C128.343 21.5 128.226 21.1965 128.226 20.8071C128.226 20.4176 128.325 20.1232 128.525 19.9239C128.733 19.7156 129.023 19.6114 129.394 19.6114H130.536V17.9402C130.536 17.0978 130.943 16.5951 131.758 16.4321L132.152 16.3505C132.641 16.2418 133.017 16.2962 133.28 16.5136C133.543 16.731 133.674 17.0842 133.674 17.5734V19.6114H136.989C137.913 19.6114 138.375 20.01 138.375 20.8071C138.375 21.1965 138.253 21.5 138.008 21.7174C137.773 21.9257 137.433 22.0299 136.989 22.0299H133.674V28.8098C133.674 30.4493 133.919 31.5996 134.408 32.2609C134.897 32.913 135.748 33.2391 136.962 33.2391C137.877 33.2391 138.375 33.5924 138.457 34.2989C138.556 35.1594 138.167 35.6304 137.288 35.7119C137.107 35.7301 136.84 35.7391 136.487 35.7391Z" fill="black"/>
<path d="M2.36957 1.21739C2.36957 0.737144 1.98025 0.347827 1.5 0.347827C1.01975 0.347827 0.630435 0.737144 0.630435 1.21739H2.36957ZM15.6304 30.3478C16.1107 30.3478 16.5 29.9585 16.5 29.4783C16.5 28.998 16.1107 28.6087 15.6304 28.6087V30.3478ZM0.630435 1.21739V25.1304H2.36957V1.21739H0.630435ZM5.84783 30.3478H8.56522V28.6087H5.84783V30.3478ZM8.56522 30.3478H15.6304V28.6087H8.56522V30.3478ZM0.630435 25.1304C0.630435 28.0119 2.96634 30.3478 5.84783 30.3478V28.6087C3.92684 28.6087 2.36957 27.0514 2.36957 25.1304H0.630435Z" fill="url(#paint0_linear_21_438)"/>
<path d="M1.5 0.130435C1.01975 0.130435 0.630435 0.519752 0.630435 1C0.630435 1.48025 1.01975 1.86957 1.5 1.86957V0.130435ZM19.0291 3.45008L18.4241 4.07464L19.0291 3.45008ZM20.8113 5.17654L20.2062 5.80109V5.80109L20.8113 5.17654ZM22.587 16C22.587 16.4802 22.9763 16.8696 23.4565 16.8696C23.9368 16.8696 24.3261 16.4802 24.3261 16H22.587ZM1.5 1.86957H12.9787V0.130435H1.5V1.86957ZM18.4241 4.07464L20.2062 5.80109L21.4163 4.55198L19.6342 2.82553L18.4241 4.07464ZM22.587 11.4221V16H24.3261V11.4221H22.587ZM20.2062 5.80109C21.7279 7.27526 22.587 9.30342 22.587 11.4221H24.3261C24.3261 8.8326 23.2762 6.35374 21.4163 4.55198L20.2062 5.80109ZM12.9787 1.86957C15.0113 1.86957 16.9642 2.66037 18.4241 4.07464L19.6342 2.82553C17.8498 1.09697 15.463 0.130435 12.9787 0.130435V1.86957Z" fill="url(#paint1_linear_21_438)"/>
<path d="M15.4131 1.86957V7.41304C15.4131 8.57936 16.3586 9.52485 17.5249 9.52485H22.8044" stroke="url(#paint2_linear_21_438)" stroke-width="1.73913"/>
<path d="M5.41309 8.98913C5.14295 8.98913 4.92396 9.20812 4.92396 9.47826C4.92396 9.7484 5.14295 9.96739 5.41309 9.96739V8.98913ZM9.16309 9.96739C9.43323 9.96739 9.65222 9.7484 9.65222 9.47826C9.65222 9.20812 9.43323 8.98913 9.16309 8.98913V9.96739ZM5.41309 9.96739H9.16309V8.98913H5.41309V9.96739Z" fill="black" fill-opacity="0.37"/>
<path d="M5.57605 20.7283C5.30591 20.7283 5.08692 20.9473 5.08692 21.2174C5.08692 21.4875 5.30591 21.7065 5.57605 21.7065V20.7283ZM10.7934 21.7065C11.0636 21.7065 11.2826 21.4875 11.2826 21.2174C11.2826 20.9473 11.0636 20.7283 10.7934 20.7283V21.7065ZM5.57605 21.7065H10.7934V20.7283H5.57605V21.7065Z" fill="black" fill-opacity="0.37"/>
<path d="M5.57605 17.7935C5.30591 17.7935 5.08692 18.0125 5.08692 18.2826C5.08692 18.5527 5.30591 18.7717 5.57605 18.7717V17.7935ZM12.0978 18.7717C12.3679 18.7717 12.5869 18.5527 12.5869 18.2826C12.5869 18.0125 12.3679 17.7935 12.0978 17.7935V18.7717ZM5.57605 18.7717H12.0978V17.7935H5.57605V18.7717Z" fill="black" fill-opacity="0.37"/>
<path d="M5.57605 11.9239C5.30591 11.9239 5.08692 12.1429 5.08692 12.413C5.08692 12.6832 5.30591 12.9022 5.57605 12.9022V11.9239ZM14.7065 12.9022C14.9766 12.9022 15.1956 12.6832 15.1956 12.413C15.1956 12.1429 14.9766 11.9239 14.7065 11.9239V12.9022ZM5.57605 12.9022H14.7065V11.9239H5.57605V12.9022Z" fill="black" fill-opacity="0.37"/>
<path d="M5.57605 14.8587C5.30591 14.8587 5.08692 15.0777 5.08692 15.3478C5.08692 15.618 5.30591 15.837 5.57605 15.837V14.8587ZM14.7065 15.837C14.9766 15.837 15.1956 15.618 15.1956 15.3478C15.1956 15.0777 14.9766 14.8587 14.7065 14.8587V15.837ZM5.57605 15.837H14.7065V14.8587H5.57605V15.837Z" fill="black" fill-opacity="0.37"/>
<defs>
<linearGradient id="paint0_linear_21_438" x1="1.5" y1="1.21739" x2="24.1087" y2="12.5217" gradientUnits="userSpaceOnUse">
<stop stop-color="#72EDF2"/>
<stop offset="1" stop-color="#5151E5"/>
</linearGradient>
<linearGradient id="paint1_linear_21_438" x1="1.5" y1="1" x2="15.4734" y2="21.4538" gradientUnits="userSpaceOnUse">
<stop stop-color="#72EDF2"/>
<stop offset="1" stop-color="#5151E5"/>
</linearGradient>
<linearGradient id="paint2_linear_21_438" x1="15.4131" y1="1.86957" x2="23.0637" y2="9.25632" gradientUnits="userSpaceOnUse">
<stop stop-color="#72EDF2"/>
<stop offset="1" stop-color="#5151E5"/>
</linearGradient>
</defs>
</svg>
