<svg width="139" height="41" viewBox="0 0 139 41" fill="none" xmlns="http://www.w3.org/2000/svg">
<path d="M24.5056 35.5217C23.7357 35.5217 23.2103 35.1594 22.9295 34.4348L17.8344 21.2147C17.6533 20.7346 17.6623 20.3496 17.8616 20.0598C18.0609 19.7609 18.4142 19.6114 18.9214 19.6114H19.3969C20.1759 19.6114 20.7013 19.9783 20.973 20.7119L25.0084 31.8804L28.7448 20.7527C29.0074 19.9918 29.5328 19.6114 30.3209 19.6114H30.3752C31.1904 19.6114 31.7203 19.9918 31.9649 20.7527L35.7013 31.8804L39.7366 20.7255C40.0084 19.9828 40.5337 19.6114 41.3127 19.6114H41.7882C42.3045 19.6114 42.6623 19.7609 42.8616 20.0598C43.0699 20.3496 43.0835 20.7346 42.9024 21.2147L37.7529 34.4348C37.4721 35.1594 36.9422 35.5217 36.1632 35.5217H35.3888C34.5736 35.5217 34.0437 35.1413 33.7991 34.3804L30.348 23.8913L26.8969 34.3804C26.6524 35.1413 26.127 35.5217 25.3209 35.5217H24.5056ZM46.8969 35.5217C46.444 35.5217 46.0953 35.404 45.8507 35.1685C45.6152 34.9239 45.4975 34.5797 45.4975 34.1359V15.8206C45.4975 15.3768 45.6152 15.0371 45.8507 14.8016C46.0953 14.5571 46.444 14.4348 46.8969 14.4348H47.223C47.6759 14.4348 48.0201 14.5571 48.2556 14.8016C48.5002 15.0371 48.6225 15.3768 48.6225 15.8206V22.5054C48.9757 21.6177 49.6007 20.8659 50.4975 20.25C51.3942 19.634 52.5038 19.3261 53.8263 19.3261C55.964 19.3261 57.5672 19.9375 58.6361 21.1603C59.714 22.3831 60.2529 24.2944 60.2529 26.894V34.1359C60.2529 34.5797 60.1306 34.9239 59.8861 35.1685C59.6506 35.404 59.3064 35.5217 58.8535 35.5217H58.5274C58.0745 35.5217 57.7257 35.404 57.4812 35.1685C57.2457 34.9239 57.1279 34.5797 57.1279 34.1359V27.1522C57.1279 25.3768 56.7837 24.0815 56.0953 23.2663C55.4069 22.442 54.3245 22.0299 52.848 22.0299C51.4078 22.0299 50.3435 22.4873 49.6551 23.4022C48.9667 24.317 48.6225 25.6848 48.6225 27.5054V34.1359C48.6225 34.5797 48.5002 34.9239 48.2556 35.1685C48.0201 35.404 47.6759 35.5217 47.223 35.5217H46.8969ZM65.1714 17.4647C64.6279 17.4647 64.1841 17.3152 63.8399 17.0163C63.4957 16.7174 63.3236 16.3098 63.3236 15.7935C63.3236 15.2772 63.4957 14.8696 63.8399 14.5706C64.1841 14.2717 64.6279 14.1223 65.1714 14.1223C65.6786 14.1223 66.1089 14.2763 66.4622 14.5842C66.8245 14.8831 67.0056 15.2862 67.0056 15.7935C67.0056 16.3007 66.8245 16.7083 66.4622 17.0163C66.1089 17.3152 65.6786 17.4647 65.1714 17.4647ZM64.954 35.5217C64.5192 35.5217 64.1841 35.404 63.9486 35.1685C63.7131 34.9239 63.5953 34.5797 63.5953 34.1359V20.9973C63.5953 20.5534 63.7131 20.2138 63.9486 19.9783C64.1841 19.7337 64.5192 19.6114 64.954 19.6114H65.3073C65.742 19.6114 66.0772 19.7337 66.3127 19.9783C66.5573 20.2138 66.6795 20.5534 66.6795 20.9973V34.1359C66.6795 34.5797 66.5573 34.9239 66.3127 35.1685C66.0772 35.404 65.742 35.5217 65.3073 35.5217H64.954ZM77.291 35.7391C75.2076 35.7391 73.6949 35.2455 72.7529 34.2581C71.8109 33.2618 71.3399 31.5679 71.3399 29.1766V22.0299H70.416C69.9721 22.0299 69.6279 21.9257 69.3833 21.7174C69.1478 21.5 69.0301 21.1965 69.0301 20.8071C69.0301 20.4176 69.1297 20.1232 69.329 19.9239C69.5373 19.7156 69.8272 19.6114 70.1986 19.6114H71.3399V17.9402C71.3399 17.0978 71.7475 16.5951 72.5627 16.4321L72.9567 16.3505C73.4458 16.2418 73.8218 16.2962 74.0844 16.5136C74.3471 16.731 74.4785 17.0842 74.4785 17.5734V19.6114H77.7937C78.7176 19.6114 79.1795 20.01 79.1795 20.8071C79.1795 21.1965 79.0573 21.5 78.8127 21.7174C78.5772 21.9257 78.2375 22.0299 77.7937 22.0299H74.4785V28.8098C74.4785 30.4493 74.723 31.5996 75.2122 32.2609C75.7013 32.913 76.5527 33.2391 77.7665 33.2391C78.6814 33.2391 79.1795 33.5924 79.2611 34.2989C79.3607 35.1594 78.9712 35.6304 78.0926 35.7119C77.9114 35.7301 77.6442 35.7391 77.291 35.7391ZM88.7176 35.8342C86.2448 35.8342 84.2611 35.0824 82.7665 33.5788C81.281 32.0661 80.5382 30.0598 80.5382 27.5598C80.5382 25.1141 81.281 23.1259 82.7665 21.5951C84.2611 20.0643 86.1995 19.2989 88.5817 19.2989C90.8734 19.2989 92.7122 20.0009 94.098 21.4049C95.4929 22.7998 96.2402 24.6567 96.3399 26.9755C96.3489 27.4284 96.2312 27.7772 95.9866 28.0217C95.7511 28.2572 95.4069 28.375 94.954 28.375H83.6632C83.7176 29.9058 84.1931 31.0969 85.0899 31.9484C85.9957 32.7908 87.223 33.2119 88.7719 33.2119C89.6143 33.2119 90.3299 33.1078 90.9187 32.8994C91.5165 32.6821 92.0736 32.3424 92.5899 31.8804C92.6261 31.8533 92.6986 31.7898 92.8073 31.6902C92.916 31.5906 92.9884 31.5272 93.0247 31.5C93.0609 31.4728 93.1243 31.423 93.2149 31.3505C93.3054 31.2781 93.3734 31.2328 93.4187 31.2147C93.464 31.1875 93.5319 31.1558 93.6225 31.1196C93.7131 31.0833 93.7901 31.0652 93.8535 31.0652C93.9259 31.0561 94.0074 31.0516 94.098 31.0516C94.1886 31.0516 94.2792 31.0652 94.3698 31.0924L94.7094 31.1875C95.6786 31.4321 95.8915 31.9484 95.348 32.7364C93.9622 34.8016 91.752 35.8342 88.7176 35.8342ZM83.7448 25.9158H93.3915C93.2828 24.6386 92.8118 23.6286 91.9785 22.8859C91.1451 22.1431 90.031 21.7717 88.6361 21.7717C87.2683 21.7717 86.1542 22.125 85.2937 22.8315C84.4422 23.529 83.9259 24.5571 83.7448 25.9158ZM100.864 35.5217C100.411 35.5217 100.063 35.404 99.8181 35.1685C99.5826 34.9239 99.4649 34.5797 99.4649 34.1359V15.8206C99.4649 15.3768 99.5826 15.0371 99.8181 14.8016C100.063 14.5571 100.411 14.4348 100.864 14.4348H101.218C101.67 14.4348 102.015 14.5571 102.25 14.8016C102.495 15.0371 102.617 15.3768 102.617 15.8206V34.1359C102.617 34.5797 102.495 34.9239 102.25 35.1685C102.015 35.404 101.67 35.5217 101.218 35.5217H100.864ZM107.862 17.4647C107.318 17.4647 106.874 17.3152 106.53 17.0163C106.186 16.7174 106.014 16.3098 106.014 15.7935C106.014 15.2772 106.186 14.8696 106.53 14.5706C106.874 14.2717 107.318 14.1223 107.862 14.1223C108.369 14.1223 108.799 14.2763 109.152 14.5842C109.515 14.8831 109.696 15.2862 109.696 15.7935C109.696 16.3007 109.515 16.7083 109.152 17.0163C108.799 17.3152 108.369 17.4647 107.862 17.4647ZM107.644 35.5217C107.209 35.5217 106.874 35.404 106.639 35.1685C106.403 34.9239 106.286 34.5797 106.286 34.1359V20.9973C106.286 20.5534 106.403 20.2138 106.639 19.9783C106.874 19.7337 107.209 19.6114 107.644 19.6114H107.997C108.432 19.6114 108.767 19.7337 109.003 19.9783C109.247 20.2138 109.37 20.5534 109.37 20.9973V34.1359C109.37 34.5797 109.247 34.9239 109.003 35.1685C108.767 35.404 108.432 35.5217 107.997 35.5217H107.644ZM119.601 35.7935C118.242 35.7935 116.924 35.5444 115.647 35.0462C114.379 34.5389 113.419 33.8732 112.766 33.0489C112.486 32.6866 112.404 32.3379 112.522 32.0027C112.649 31.6676 112.943 31.4321 113.405 31.2962L113.69 31.2147C113.971 31.106 114.252 31.0879 114.533 31.1603C114.814 31.2328 115.144 31.4366 115.525 31.7717C116.539 32.6775 117.893 33.1304 119.587 33.1304C120.747 33.1304 121.652 32.9357 122.305 32.5462C122.957 32.1476 123.283 31.5996 123.283 30.9022C123.283 30.5127 123.165 30.1821 122.93 29.9103C122.694 29.6295 122.377 29.4121 121.978 29.2581C121.58 29.0951 121.122 28.9592 120.606 28.8505C120.09 28.7328 119.546 28.6241 118.976 28.5244C118.405 28.4248 117.834 28.3161 117.264 28.1984C116.702 28.0715 116.163 27.8994 115.647 27.6821C115.131 27.4647 114.673 27.2065 114.275 26.9076C113.876 26.5996 113.559 26.1965 113.324 25.6984C113.088 25.1911 112.97 24.6069 112.97 23.9456C112.97 23.0036 113.265 22.1748 113.853 21.4592C114.451 20.7437 115.23 20.2092 116.19 19.856C117.151 19.5027 118.206 19.3261 119.356 19.3261C120.434 19.3261 121.539 19.5344 122.671 19.9511C123.804 20.3587 124.705 20.9112 125.375 21.6087C125.701 21.9529 125.819 22.2926 125.728 22.6277C125.638 22.9629 125.366 23.1984 124.913 23.3342L124.628 23.4158C124.447 23.4701 124.284 23.5018 124.139 23.5109C124.003 23.5199 123.844 23.4882 123.663 23.4158C123.491 23.3433 123.364 23.2844 123.283 23.2391C123.201 23.1938 123.029 23.0897 122.766 22.9266C121.616 22.2382 120.493 21.894 119.397 21.894C118.364 21.894 117.545 22.0616 116.938 22.3967C116.331 22.7228 116.027 23.1893 116.027 23.7962C116.027 24.1766 116.145 24.4982 116.381 24.7609C116.616 25.0235 116.933 25.2319 117.332 25.3859C117.739 25.5308 118.201 25.6576 118.718 25.7663C119.243 25.875 119.791 25.9792 120.362 26.0788C120.941 26.1784 121.516 26.2917 122.087 26.4185C122.667 26.5362 123.215 26.7083 123.731 26.9348C124.257 27.1612 124.718 27.433 125.117 27.75C125.525 28.067 125.846 28.4882 126.082 29.0136C126.317 29.5299 126.435 30.1322 126.435 30.8206C126.435 32.2971 125.796 33.4973 124.519 34.4212C123.242 35.336 121.603 35.7935 119.601 35.7935ZM135.987 35.7391C133.903 35.7391 132.391 35.2455 131.449 34.2581C130.507 33.2618 130.036 31.5679 130.036 29.1766V22.0299H129.112C128.668 22.0299 128.324 21.9257 128.079 21.7174C127.843 21.5 127.726 21.1965 127.726 20.8071C127.726 20.4176 127.825 20.1232 128.025 19.9239C128.233 19.7156 128.523 19.6114 128.894 19.6114H130.036V17.9402C130.036 17.0978 130.443 16.5951 131.258 16.4321L131.652 16.3505C132.141 16.2418 132.517 16.2962 132.78 16.5136C133.043 16.731 133.174 17.0842 133.174 17.5734V19.6114H136.489C137.413 19.6114 137.875 20.01 137.875 20.8071C137.875 21.1965 137.753 21.5 137.508 21.7174C137.273 21.9257 136.933 22.0299 136.489 22.0299H133.174V28.8098C133.174 30.4493 133.419 31.5996 133.908 32.2609C134.397 32.913 135.248 33.2391 136.462 33.2391C137.377 33.2391 137.875 33.5924 137.957 34.2989C138.056 35.1594 137.667 35.6304 136.788 35.7119C136.607 35.7301 136.34 35.7391 135.987 35.7391Z" fill="white"/>
<path d="M1 1.21741V25.1305C1 27.5317 2.94659 29.4783 5.34783 29.4783H8.06522H15.1304" stroke="url(#paint0_linear_21_409)" stroke-width="1.73913" stroke-linecap="round"/>
<path d="M1 1H12.4787C14.7372 1 16.907 1.87867 18.5291 3.45008L20.3113 5.17654C22.0021 6.8145 22.9565 9.06801 22.9565 11.4221V16" stroke="url(#paint1_linear_21_409)" stroke-width="1.73913" stroke-linecap="round"/>
<path d="M14.9131 1.86963V7.41311C14.9131 8.57942 15.8586 9.52491 17.0249 9.52491H22.3044" stroke="url(#paint2_linear_21_409)" stroke-width="1.73913"/>
<path d="M4.91309 9.47827H8.66309" stroke="white" stroke-opacity="0.92" stroke-width="0.978261" stroke-linecap="round" stroke-linejoin="round"/>
<path d="M5.07605 21.2174H10.2934" stroke="white" stroke-opacity="0.92" stroke-width="0.978261" stroke-linecap="round" stroke-linejoin="round"/>
<path d="M5.07605 18.2826H11.5978" stroke="white" stroke-opacity="0.92" stroke-width="0.978261" stroke-linecap="round" stroke-linejoin="round"/>
<path d="M5.07605 12.4131H14.2065" stroke="white" stroke-opacity="0.92" stroke-width="0.978261" stroke-linecap="round" stroke-linejoin="round"/>
<path d="M5.07605 15.3478H14.2065" stroke="white" stroke-opacity="0.92" stroke-width="0.978261" stroke-linecap="round" stroke-linejoin="round"/>
<defs>
<linearGradient id="paint0_linear_21_409" x1="1" y1="1.21741" x2="23.6087" y2="12.5218" gradientUnits="userSpaceOnUse">
<stop stop-color="#72EDF2"/>
<stop offset="1" stop-color="#5151E5"/>
</linearGradient>
<linearGradient id="paint1_linear_21_409" x1="1" y1="1" x2="14.9734" y2="21.4538" gradientUnits="userSpaceOnUse">
<stop stop-color="#72EDF2"/>
<stop offset="1" stop-color="#5151E5"/>
</linearGradient>
<linearGradient id="paint2_linear_21_409" x1="14.9131" y1="1.86963" x2="22.5637" y2="9.25638" gradientUnits="userSpaceOnUse">
<stop stop-color="#72EDF2"/>
<stop offset="1" stop-color="#5151E5"/>
</linearGradient>
</defs>
</svg>
