<svg width="35" height="35" viewBox="0 0 35 35" fill="none" xmlns="http://www.w3.org/2000/svg">
<path fill-rule="evenodd" clip-rule="evenodd" d="M10.9535 0H24.0698C30.1055 0 35 4.89457 35 10.9303V24.0466C35 30.0823 30.1055 34.9768 24.0698 34.9768H10.9535C4.91777 34.9768 0.0231934 30.0823 0.0231934 24.0466V10.9303C0.0231934 4.89457 4.91777 0 10.9535 0ZM24.0698 31.6977C28.2889 31.6977 31.721 28.2656 31.721 24.0465V10.9302C31.721 6.71115 28.2889 3.27905 24.0698 3.27905H10.9535C6.7344 3.27905 3.30229 6.71115 3.30229 10.9302V24.0465C3.30229 28.2656 6.7344 31.6977 10.9535 31.6977H24.0698Z" fill="white"/>
<path fill-rule="evenodd" clip-rule="evenodd" d="M8.76733 17.4884C8.76733 12.6594 12.6826 8.74414 17.5115 8.74414C22.3405 8.74414 26.2558 12.6594 26.2558 17.4884C26.2558 22.3173 22.3405 26.2326 17.5115 26.2326C12.6826 26.2326 8.76733 22.3173 8.76733 17.4884ZM12.0465 17.4883C12.0465 20.5007 14.4992 22.9535 17.5116 22.9535C20.524 22.9535 22.9767 20.5007 22.9767 17.4883C22.9767 14.4738 20.524 12.0232 17.5116 12.0232C14.4992 12.0232 12.0465 14.4738 12.0465 17.4883Z" fill="white"/>
<circle cx="26.9117" cy="8.08838" r="1.16517" fill="white"/>
</svg>
