<svg width="44" height="35" viewBox="0 0 44 35" fill="none" xmlns="http://www.w3.org/2000/svg">
<path d="M43.2379 4.11197C41.6481 4.80932 39.9542 5.27155 38.1881 5.49598C40.005 4.41121 41.3916 2.70658 42.0436 0.65193C40.3496 1.66189 38.4793 2.37527 36.4861 2.77337C34.8777 1.06072 32.5852 0 30.0844 0C25.2323 0 21.3261 3.9383 21.3261 8.76632C21.3261 9.46099 21.3849 10.129 21.5292 10.7649C14.243 10.4095 7.79589 6.9174 3.46484 1.59776C2.7087 2.90964 2.26518 4.41121 2.26518 6.02768C2.26518 9.06289 3.82821 11.7534 6.15805 13.3111C4.74999 13.2844 3.36865 12.8756 2.19838 12.2317C2.19838 12.2584 2.19838 12.2931 2.19838 12.3279C2.19838 16.5868 5.23627 20.1243 9.21998 20.9392C8.5066 21.1343 7.7291 21.2278 6.9222 21.2278C6.36111 21.2278 5.79468 21.1957 5.26299 21.0782C6.39852 24.5489 9.62076 27.1005 13.4522 27.1833C10.4704 29.5158 6.68441 30.9212 2.5858 30.9212C1.86707 30.9212 1.17774 30.8892 0.488403 30.801C4.37059 33.3045 8.9715 34.734 13.9331 34.734C30.0604 34.734 38.8774 21.3747 38.8774 9.79498C38.8774 9.40756 38.8641 9.0335 38.8454 8.66211C40.5847 7.42772 42.0462 5.88607 43.2379 4.11197Z" fill="white"/>
</svg>
